<?xml version="1.0" encoding="UTF-8" standalone="no"?>
<!--Generator: Xara Designer (www.xara.com), SVG filter version: 6.3.0.4-->

<svg
   stroke-width="0.501"
   stroke-linejoin="bevel"
   fill-rule="evenodd"
   version="1.1"
   overflow="visible"
   width="384pt"
   height="384pt"
   viewBox="0 0 384 384"
   id="svg15"
   sodipodi:docname="app_symbol.svg"
   inkscape:export-filename="C:\Users\KleffDominic\Desktop\app_symbo192.png"
   inkscape:export-xdpi="36"
   inkscape:export-ydpi="36"
   inkscape:version="1.1.1 (3bf5ae0d25, 2021-09-20)"
   xmlns:inkscape="http://www.inkscape.org/namespaces/inkscape"
   xmlns:sodipodi="http://sodipodi.sourceforge.net/DTD/sodipodi-0.dtd"
   xmlns="http://www.w3.org/2000/svg"
   xmlns:svg="http://www.w3.org/2000/svg">
  <sodipodi:namedview
     id="namedview17"
     pagecolor="#505050"
     bordercolor="#eeeeee"
     borderopacity="1"
     inkscape:pageshadow="0"
     inkscape:pageopacity="0"
     inkscape:pagecheckerboard="0"
     inkscape:document-units="pt"
     showgrid="false"
     inkscape:zoom="1.4042969"
     inkscape:cx="256"
     inkscape:cy="256"
     inkscape:window-width="1342"
     inkscape:window-height="969"
     inkscape:window-x="-198"
     inkscape:window-y="46"
     inkscape:window-maximized="0"
     inkscape:current-layer="svg15" />
  <defs
     id="defs2" />
  <g
     id="Document"
     fill="none"
     stroke="black"
     font-family="Times New Roman"
     font-size="16"
     transform="scale(1 -1)">
    <g
       id="Spread"
       transform="translate(0 -384)">
      <g
         id="Layer 1">
        <path
           d="M -40.851,-29.652 L -29.653,424.848 L 424.852,413.65 L 413.654,-40.85 L -40.851,-29.652 Z"
           stroke="none"
           fill="#007fff"
           stroke-linejoin="miter"
           marker-start="none"
           marker-end="none"
           id="path4" />
        <path
           d="M 317.765,113.001 C 274.155,43.583 182.409,22.635 112.991,66.239 C 43.573,109.843 22.627,201.577 66.237,270.997 C 88.639,306.659 123.739,329.523 161.991,337.425 C 198.209,344.901 237.253,338.967 271.011,317.759 C 340.429,274.155 361.375,182.421 317.765,113.001 Z"
           stroke="none"
           fill="#80bfff"
           stroke-width="13.494"
           stroke-linejoin="round"
           stroke-linecap="round"
           marker-start="none"
           marker-end="none"
           stroke-miterlimit="79.8403193612775"
           id="path6" />
        <path
           d="M 166.127,133.861 C 155.609,144.191 140.925,147.917 127.405,144.917 C 127.085,146.021 126.819,147.159 126.613,148.327 L 115.625,210.647 C 114.311,218.093 115.705,225.285 119.017,230.826 C 122.193,236.145 127.127,239.947 133.113,241.001 L 133.119,241.003 C 145.345,243.159 157.361,233.055 159.935,218.461 L 170.923,156.141 C 172.309,148.287 170.681,140.725 166.979,135.077 C 166.705,134.659 166.421,134.252 166.127,133.861 Z"
           stroke="none"
           fill="#000000"
           stroke-linejoin="miter"
           marker-start="none"
           marker-end="none"
           id="path8" />
        <path
           d="M 235.841,146.457 C 230.011,150.431 225.531,157.252 224.073,165.51 L 213.085,227.833 C 211.615,236.169 213.541,244.187 217.75,249.931 C 220.901,254.233 225.333,257.263 230.573,258.187 L 230.579,258.187 C 236.777,259.281 242.923,257.227 247.805,253.026 C 252.565,248.947 256.128,242.843 257.395,235.645 L 268.385,173.325 C 268.591,172.157 268.727,170.997 268.805,169.849 C 255.071,168.045 242.547,159.523 236.193,146.219 C 236.077,146.299 235.957,146.377 235.841,146.457 Z"
           stroke="none"
           fill="#000000"
           stroke-linejoin="miter"
           marker-start="none"
           marker-end="none"
           id="path10" />
      </g>
    </g>
  </g>
</svg>
